<svg id="Layer_1" data-name="Layer 1" xmlns="http://www.w3.org/2000/svg" xmlns:xlink="http://www.w3.org/1999/xlink" viewBox="0 0 1024 1024"><defs><style>.cls-1{fill:#fff;}.cls-2{fill:url(#linear-gradient);}.cls-3{fill:url(#linear-gradient-2);}.cls-4{fill:url(#linear-gradient-3);}.cls-5{fill:url(#linear-gradient-4);}.cls-6{fill:url(#linear-gradient-5);}.cls-7{fill:url(#linear-gradient-6);}.cls-8{fill:url(#linear-gradient-7);}.cls-9{fill:url(#linear-gradient-8);}.cls-10{fill:url(#linear-gradient-9);}.cls-11{fill:url(#linear-gradient-10);}.cls-12{fill:url(#linear-gradient-11);}.cls-13{fill:url(#linear-gradient-12);}.cls-14{fill:url(#linear-gradient-13);}.cls-15{fill:url(#linear-gradient-14);}.cls-16{fill:url(#linear-gradient-15);}.cls-17{fill:url(#linear-gradient-16);}.cls-18{fill:url(#linear-gradient-17);}.cls-19{fill:url(#linear-gradient-18);}.cls-20{fill:url(#linear-gradient-19);}.cls-21{fill:#ff02ff;}.cls-22{fill:aqua;}.cls-23{fill:#feee01;}.cls-24{fill:#fe0002;}.cls-25{fill:#00a60a;}.cls-26{fill:url(#linear-gradient-20);}</style><linearGradient id="linear-gradient" x1="409.49" y1="576.27" x2="398.31" y2="706" gradientUnits="userSpaceOnUse"><stop offset="0" stop-color="#00b4ff"/><stop offset="1" stop-color="#0539b7"/></linearGradient><linearGradient id="linear-gradient-2" x1="656.53" y1="575.72" x2="641.58" y2="749.15" xlink:href="#linear-gradient"/><linearGradient id="linear-gradient-3" x1="366.3" y1="677.13" x2="366.3" y2="755.87" xlink:href="#linear-gradient"/><linearGradient id="linear-gradient-4" x1="482.6" y1="684.33" x2="482.6" y2="685.8" xlink:href="#linear-gradient"/><linearGradient id="linear-gradient-5" x1="541.22" y1="684.62" x2="541.22" y2="685.79" xlink:href="#linear-gradient"/><linearGradient id="linear-gradient-6" x1="620.26" y1="680.01" x2="620.26" y2="881.8" xlink:href="#linear-gradient"/><linearGradient id="linear-gradient-7" x1="386.5" y1="641.19" x2="358.83" y2="750.32" xlink:href="#linear-gradient"/><linearGradient id="linear-gradient-8" x1="482.98" y1="683.8" x2="482.53" y2="685.57" xlink:href="#linear-gradient"/><linearGradient id="linear-gradient-9" x1="541.38" y1="684.38" x2="541.02" y2="685.79" xlink:href="#linear-gradient"/><linearGradient id="linear-gradient-10" x1="658.55" y1="645.13" x2="604.37" y2="858.81" xlink:href="#linear-gradient"/><linearGradient id="linear-gradient-11" x1="302.76" y1="669.91" x2="302.76" y2="754.71" xlink:href="#linear-gradient"/><linearGradient id="linear-gradient-12" x1="404.72" y1="689.74" x2="404.72" y2="868.02" xlink:href="#linear-gradient"/><linearGradient id="linear-gradient-13" x1="600.05" y1="737.46" x2="600.05" y2="869.99" xlink:href="#linear-gradient"/><linearGradient id="linear-gradient-14" x1="302.76" y1="674.72" x2="302.76" y2="754.91" xlink:href="#linear-gradient"/><linearGradient id="linear-gradient-15" x1="404.72" y1="699.86" x2="404.72" y2="868.44" xlink:href="#linear-gradient"/><linearGradient id="linear-gradient-16" x1="600.05" y1="744.98" x2="600.05" y2="870.3" xlink:href="#linear-gradient"/><linearGradient id="linear-gradient-17" x1="317.89" y1="702.97" x2="282.08" y2="747.66" xlink:href="#linear-gradient"/><linearGradient id="linear-gradient-18" x1="499.6" y1="700.32" x2="370.23" y2="861.8" xlink:href="#linear-gradient"/><linearGradient id="linear-gradient-19" x1="614" y1="805.93" x2="572.94" y2="857.18" xlink:href="#linear-gradient"/><linearGradient id="linear-gradient-20" x1="473.74" y1="367.73" x2="473.74" y2="701.03" gradientUnits="userSpaceOnUse"><stop offset="0.19" stop-color="#00b4ff"/><stop offset="1" stop-color="#0539b7"/></linearGradient></defs><path class="cls-1" d="M536.73,159,519.81,272.43l-1.06,115.89,40.49,16.83S651.71,333.57,679.8,439c56.8,18.75,67.81,75.44,63.88,95.15,22.43,25.15,49.6,77.79,16.42,122.33,29.12,30.59,44.75,114.86-31.37,129.81-2.72,42.82-17,118.26-117.57,115.54-57.06-4.2-92.7-83.6-92.7-83.6s-27.6,89.18-139.06,83.67c-76.64-3.47-81.55-114.25-81.55-114.25S202.7,772,253.67,661.93c-22.8-58.73-10.19-108.47,25.83-117.44C266.15,500,305.2,439,341.62,447.17c20.11-44.86,42.54-83.73,110.5-42C484.75,292.22,509.2,140,536.73,159Z"/><path d="M776.3,654c.28-.38.56-.76.82-1.14.47-.64.91-1.3,1.34-2l.08-.12.47-.72c.28-.43.57-.86.85-1.3l0-.06.57-.89c.26-.42.51-.84.76-1.26a.41.41,0,0,1,.07-.11c.07-.12.13-.25.21-.37l.7-1.21.81-1.49h0v0c.07-.13.14-.26.2-.39l.22-.4c.31-.59.6-1.17.89-1.77a1.17,1.17,0,0,0,0-.11l.38-.78a.41.41,0,0,1,.05-.09.56.56,0,0,0,.07-.16l.18-.38a.36.36,0,0,0,0-.09c.2-.42.4-.85.59-1.29l.08-.18.51-1.17s0,0,0,0a.47.47,0,0,0,.06-.15c.22-.52.44-1,.65-1.57l.06-.14,0-.06c.24-.59.46-1.18.68-1.77.1-.27.2-.54.29-.81.22-.59.43-1.19.63-1.78l0-.06c.09-.26.17-.53.25-.8.36-1.08.69-2.18,1-3.28,0-.16.09-.32.14-.48a3.62,3.62,0,0,1,.13-.47l0-.14c.21-.81.41-1.61.6-2.42,0-.18.09-.35.13-.53a1.29,1.29,0,0,1,0-.21l0-.16c.12-.55.24-1.1.35-1.65a2.21,2.21,0,0,0,.05-.25c.09-.42.16-.84.25-1.25l.1-.58.18-1v-.1c.05-.27.09-.54.13-.81l.05-.34c0-.18.06-.35.08-.53,0,0,0,0,0,0a2.36,2.36,0,0,0,0-.28.45.45,0,0,0,0-.11l0-.25c.06-.44.12-.87.17-1.3s.12-1,.17-1.44c0-.28,0-.55.07-.83,0-.08,0-.16,0-.25,0-.29.05-.59.07-.89,0-.06,0-.13,0-.2,0-.41.07-.82.09-1.23,0-.16,0-.32,0-.48a2.11,2.11,0,0,0,0-.26c0-.27,0-.54,0-.8v0a.53.53,0,0,1,0-.13c0-.51,0-1,0-1.53s0-1.28,0-1.91c0-.31,0-.62,0-.93,0-.11,0-.21,0-.32,0-.32,0-.64,0-1,0-.62,0-1.25-.07-1.87,0,0,0-.1,0-.15l0-.48a2.26,2.26,0,0,1,0-.26c0-.51-.06-1-.1-1.51q-.07-1-.18-2l0-.37q-.12-1.14-.27-2.28c-.06-.54-.14-1.07-.22-1.6,0,0,0-.07,0-.11s0-.3-.07-.45c-.05-.31-.09-.63-.15-.93s-.13-.79-.21-1.18a2.34,2.34,0,0,0,0-.26c-.07-.38-.15-.75-.22-1.12a.09.09,0,0,0,0-.05c0-.06,0-.13,0-.19s0-.25-.08-.37l0-.16c-.11-.58-.24-1.14-.37-1.71s-.27-1.16-.42-1.75l-.15-.56-.48-1.77c-.19-.67-.4-1.35-.6-2,0,0,0,0,0,0-.4-1.31-.84-2.62-1.32-3.91-.27-.74-.56-1.48-.85-2.21l-.12-.3c-.11-.29-.23-.57-.35-.85,0-.06,0-.13-.08-.19s-.06-.13-.08-.19l-.14-.32-.06-.14c0-.09-.08-.19-.11-.28s-.11-.24-.16-.37l-.41-.92c-.28-.6-.56-1.2-.85-1.79a.37.37,0,0,0,0-.11c0-.08-.07-.17-.11-.25-.3-.6-.6-1.2-.91-1.79a1.51,1.51,0,0,0-.11-.22c-.22-.43-.45-.84-.67-1.26l-.11-.2a85.18,85.18,0,0,0-25.4-28.75,86.11,86.11,0,0,0,1.93-18.1,85.29,85.29,0,0,0-67-83.27,73.14,73.14,0,0,0-72.14-61.74c-1,0-2.06,0-3.08.07-11.38.53-26.36,6-33.63,12l-.88,27.87A63.55,63.55,0,0,1,613,397.73a46.5,46.5,0,0,1,53.7,45.8v.28a13.23,13.23,0,0,0,12.18,13.32,58.78,58.78,0,0,1,53.92,58.55c0,2-.1,4-.29,5.92h0A85.32,85.32,0,0,0,707.89,518a13.25,13.25,0,1,0,0,26.5,58.81,58.81,0,0,1,51.61,30.7,1.74,1.74,0,0,0,.1.19q1.21,2.26,2.24,4.64c.12.28.24.55.35.83.3.72.6,1.45.87,2.2h0s0,.09.05.13c.3.85.59,1.7.86,2.56l0,.09c.26.82.49,1.65.71,2.48,0,.09,0,.17.07.26s0,.05,0,.08c.43,1.67.77,3.37,1.06,5.09.06.36.11.72.16,1.08.11.74.2,1.47.28,2.21,0,.17,0,.35.05.52.18,1.87.28,3.76.28,5.68v0c0,1,0,2-.08,3,0,.53-.06,1-.1,1.58,0,.27-.05.55-.08.83,0,.46-.09.92-.14,1.38l-.12,1a58.87,58.87,0,0,1-42.67,48.87,13.25,13.25,0,1,0,7,25.56,84.74,84.74,0,0,0,26.94-12.84h0a58.69,58.69,0,0,1,17.87,42.17c0,.51,0,1,0,1.51s0,.81,0,1.22,0,.72-.06,1.07,0,.69-.08,1,0,.49-.06.73-.07.68-.1,1-.1.87-.16,1.3-.13,1-.21,1.43-.21,1.24-.33,1.86-.25,1.25-.39,1.86c-.1.42-.2.85-.31,1.26s-.22.85-.33,1.27-.2.75-.32,1.12a1.19,1.19,0,0,1-.07.23c-.11.39-.22.77-.35,1.14s-.27.83-.42,1.24c-.28.82-.59,1.63-.91,2.44s-.66,1.62-1,2.4l0,0a59.12,59.12,0,0,1-16.91,21.73q-1.92,1.53-4,2.9l-.34.23a61.46,61.46,0,0,1-5.33,3.13c-.57.29-1.13.58-1.71.85a56.27,56.27,0,0,1-6.47,2.65q-.68.24-1.38.45c-1.37.42-2.77.81-4.19,1.14-1,.22-1.9.42-2.87.59a60.17,60.17,0,0,1-10.38.91,58.93,58.93,0,0,1-37.82-13.79,57.59,57.59,0,0,1-5.74-5.53,13.24,13.24,0,0,0-18.71-.93,3.71,3.71,0,0,0-.29.27,13.24,13.24,0,0,0-.64,18.44,85.41,85.41,0,0,0,61.34,28,94.49,94.49,0,1,1-141.91-85.43,13.26,13.26,0,0,0,4.79-18.11,13.24,13.24,0,0,0-18.11-4.79l-1.76,1c-12.23,7.4-27.46,31.17-43.78,31.17-33.42,0-40.46-27.07-49.3-32.21a13.27,13.27,0,0,0-15.71,1.79,13.22,13.22,0,0,0,2.39,21.11,95,95,0,0,1,47.07,81.75v0h0a94.53,94.53,0,0,1-189,3.65,85.38,85.38,0,0,0,61.34-28,13.24,13.24,0,1,0-19.63-17.78,58.93,58.93,0,0,1-43.57,19.32,60.17,60.17,0,0,1-10.38-.91,61.12,61.12,0,0,1-7.06-1.73c-.85-.26-1.69-.55-2.52-.85l-.16-.06-.13-.05c-.32-.11-.63-.25-.95-.37-1.7-.66-3.37-1.4-5-2.22l-1.17-.58c-.69-.37-1.38-.75-2.06-1.15l-.2-.11A59.16,59.16,0,0,1,258,746.38l-.34-.53c-.38-.62-.76-1.24-1.13-1.87s-.62-1.11-.92-1.67l-.17-.31c-.31-.6-.61-1.19-.9-1.79-.58-1.22-1.13-2.46-1.63-3.72l-.47-1.22c-.6-1.62-1.14-3.28-1.6-4.95-.11-.42-.23-.84-.33-1.27s-.21-.84-.31-1.26-.17-.8-.25-1.2c-.17-.84-.33-1.67-.47-2.52-.08-.48-.15-1-.21-1.43s-.11-.86-.16-1.3-.07-.67-.1-1-.05-.49-.06-.73-.06-.68-.08-1,0-.71-.06-1.07,0-.81,0-1.22,0-1,0-1.51A58.68,58.68,0,0,1,257.44,684a58,58,0,0,1,9.18-11.45,84.87,84.87,0,0,0,26.95,12.83,13.35,13.35,0,0,0,3.51.47,12.75,12.75,0,0,0,2.84-.32,13.24,13.24,0,0,0,2.75-24.93l-.05,0a11.54,11.54,0,0,0-2-.75h0a58.34,58.34,0,0,1-15.21-6.61h0a59,59,0,0,1-27.16-40.32c-.14-.8-.25-1.59-.35-2.4q-.07-.51-.12-1c-.15-1.34-.24-2.69-.3-4.06l0-1c0-.43,0-.86,0-1.3s0-1,0-1.51,0-1,.05-1.51.06-1,.1-1.49.06-.81.11-1.22c0-.17,0-.34.05-.51.1-.94.22-1.86.36-2.78.06-.43.13-.84.22-1.25q.47-2.68,1.18-5.29c.07-.26.15-.53.23-.8a.29.29,0,0,1,0-.09c.09-.33.19-.67.31-1s.28-.92.44-1.38.31-.9.48-1.35.33-.9.51-1.34l.54-1.33c.18-.44.37-.87.58-1.31s.39-.86.6-1.29.52-1,.79-1.55l.3-.57a58.79,58.79,0,0,1,51.86-31.17,13.25,13.25,0,0,0,0-26.5,84.93,84.93,0,0,0-24.63,3.64,58.77,58.77,0,0,1,53.62-64.47,13.23,13.23,0,0,0,12.18-13.32v-.3a46.57,46.57,0,0,1,46.51-46.34,46,46,0,0,1,8.93.87h0s18.42,4.53,29.7,19.95l.54-29.67S435,375,414.45,371.46h0a72.95,72.95,0,0,0-82.79,61,85.32,85.32,0,0,0-65,101.37,85,85,0,0,0-19.86,19.92l-.59.84-.8,1.14c-.37.56-.75,1.12-1.11,1.68s-.71,1.14-1.06,1.72-.69,1.15-1,1.73-.75,1.33-1.12,2q-.39.72-.75,1.44a1.62,1.62,0,0,0-.1.18c-.31.61-.62,1.23-.92,1.85-.11.23-.23.46-.33.69l-.05.1a2.72,2.72,0,0,1-.11.25c-.28.6-.56,1.22-.83,1.83l-.3.71c-.08.18-.16.37-.23.55-.5,1.16-.95,2.33-1.39,3.51s-.91,2.6-1.32,3.91l-.06.2c-.17.53-.32,1.06-.47,1.59s-.34,1.18-.5,1.78c-.06.25-.13.5-.19.75l0,.07c-.15.59-.28,1.17-.42,1.75s-.26,1.13-.37,1.71c-.05.24-.11.48-.15.72-.1.47-.19,1-.27,1.43,0,.2-.07.39-.11.59s-.08.46-.12.7-.11.66-.16,1c0,.13,0,.26-.06.39-.08.49-.14,1-.2,1.48a.25.25,0,0,0,0,.12c0,.33-.08.65-.12,1a3.41,3.41,0,0,0,0,.46c-.06.52-.13,1.05-.17,1.57s-.1,1-.14,1.55c-.11,1.44-.18,2.89-.22,4.35,0,.73,0,1.46,0,2.2,0,.51,0,1,0,1.51,0,.23,0,.46,0,.68,0,.51,0,1,.06,1.53s0,.72,0,1.08c0,.12,0,.23,0,.35l.09,1.23c0,.17,0,.34,0,.52,0,.35.06.71.1,1.06,0,.18,0,.35,0,.52.06.54.12,1.08.19,1.61a1,1,0,0,0,0,.17c.05.43.11.85.17,1.28s.11.84.18,1.27c.05.27.09.54.14.81.09.57.19,1.13.28,1.7h0c.09.41.16.83.25,1.25,0,.13,0,.26.08.4s.05.19.07.29v0c0,.15.06.29.09.45l.09.37q.31,1.47.69,2.91a2.68,2.68,0,0,0,.07.27c.47,1.84,1,3.67,1.6,5.46l.05.15.12.33c.19.58.38,1.16.59,1.73h0c.06.17.13.34.2.51l0,.06.22.58.05.11c.18.49.37,1,.56,1.46s.39,1,.6,1.44.44,1,.67,1.55.47,1,.71,1.55c.12.29.26.57.4.85.43.9.88,1.78,1.36,2.66.19.36.38.73.58,1.09l.39.72a.6.6,0,0,1,.06.11l.65,1.11a.54.54,0,0,0,.1.16,1.06,1.06,0,0,0,.11.21,1.76,1.76,0,0,0,.14.23c.25.43.51.87.78,1.29s.42.69.65,1a3.22,3.22,0,0,0,.25.39c.17.28.34.56.53.82s.25.39.38.58l.68,1c.53.77,1.07,1.52,1.63,2.28-1.95,1.92-3.81,3.94-5.56,6l-.5.61c-.29.34-.57.7-.84,1.05l-.67.84c-.11.14-.21.28-.32.41l-.65.86c-1.23,1.66-2.41,3.36-3.52,5.1l-1,1.57c-.28.47-.56.94-.83,1.41-.16.26-.3.52-.44.77-.47.82-.93,1.65-1.36,2.49-.2.39-.41.78-.61,1.18s-.41.8-.59,1.2-.39.81-.58,1.21c-.26.57-.52,1.13-.77,1.71s-.45,1-.66,1.52-.46,1.12-.68,1.68-.45,1.15-.66,1.73c0,.08-.06.17-.1.26v0c-.22.58-.42,1.16-.62,1.75l-.1.3c-.18.54-.36,1.07-.52,1.62l-.39,1.29c-.05.17-.11.34-.15.52-.15.48-.28,1-.41,1.47s-.26,1-.37,1.43c-.07.25-.13.5-.19.76l-.27,1.12c-.26,1.18-.5,2.36-.72,3.55-.06.33-.12.65-.17,1s-.1.54-.14.81c-.07.44-.14.88-.19,1.31-.18,1.19-.33,2.39-.45,3.59-.07.66-.13,1.32-.17,2,0,.19,0,.38-.05.57,0,.43-.05.85-.07,1.27,0,.25,0,.5,0,.75,0,.61-.06,1.23-.07,1.84s0,1.44,0,2.16,0,1.29,0,1.92a1.55,1.55,0,0,0,0,.22c0,.25,0,.5,0,.75s0,.4,0,.59a5.78,5.78,0,0,0,0,.58c0,.56,0,1.13.1,1.69a1.21,1.21,0,0,0,0,.19.14.14,0,0,0,0,.09c0,.38.05.78.08,1.16a.5.5,0,0,0,0,.12,1.67,1.67,0,0,0,0,.31c0,.1,0,.21,0,.31a.13.13,0,0,0,0,.06c0,.47.09.94.14,1.41a1.49,1.49,0,0,0,0,.21.59.59,0,0,0,0,.13v0c0,.12,0,.24,0,.35.06.44.11.88.17,1.31a.08.08,0,0,0,0,.07c0,.26.07.51.1.76a.15.15,0,0,0,0,.09c.05.32.09.65.14,1a.36.36,0,0,0,0,.1c0,.3.09.59.14.88.08.48.17,1,.26,1.45l.18,1c0,.28.12.56.18.83s.13.66.22,1c0,.13,0,.25.08.38q.09.47.21.93l.12.48c.15.62.3,1.24.48,1.85a.28.28,0,0,0,0,.13c0,.09,0,.19.07.29.15.53.3,1.06.46,1.59a1,1,0,0,0,.06.23c.16.52.31,1,.48,1.55.08.25.16.51.25.76l.2.6c0,.1.07.2.1.31l.09.26a1.59,1.59,0,0,1,.07.2c.06.16.12.31.17.47l.42,1.16,0,.07.09.26.29.75s0,.09.05.13c.07.19.15.37.22.56s.24.59.37.89.21.52.32.78l.06.14.33.75.12.29c.05.13.11.25.17.38l.07.16a.44.44,0,0,1,.06.16l0,0c.17.41.36.81.56,1.22s.51,1.07.78,1.61.51,1,.79,1.55v0l0,0q1.24,2.37,2.64,4.67.45.77.93,1.5c.32.51.64,1,1,1.51l1,1.44c.73,1.07,1.5,2.12,2.3,3.16.31.41.63.82,1,1.22.75.94,1.52,1.87,2.31,2.78a85.35,85.35,0,0,0,12,11.39c.48.38,1,.75,1.47,1.12a3.55,3.55,0,0,0,.31.23c.46.34.92.68,1.39,1l1,.73,1.24.84.16.1,1.26.81,1.23.77.18.11,1.31.77,1.1.62.1.06,1,.57,1.12.6.38.2c.65.34,1.3.66,2,1l1,.47.13.06.39.17.37.18.07,0,.21.1c1.25.57,2.53,1.12,3.82,1.62l2.35.88,1.11.39.13,0,.12,0,1.32.46,1.49.46v1.53l0,1.54c0,.15,0,.3,0,.45,0,.38,0,.77,0,1.16a2.72,2.72,0,0,0,0,.28.49.49,0,0,0,0,.12v.08c0,.35,0,.7.05,1.06,0,.11,0,.23,0,.35s0,.23,0,.35,0,.54.05.81v0c0,.24,0,.47,0,.7h0v0a.17.17,0,0,0,0,.07c0,.1,0,.2,0,.31s0,0,0,0,0,.24,0,.35,0,.38.05.56c0,.61.1,1.21.16,1.81,0,.16,0,.32,0,.47s0,.12,0,.18c0,.24,0,.48.08.72.05.47.1.94.16,1.41,0,.11,0,.23,0,.35s0,.27.05.4,0,0,0,.07a.34.34,0,0,1,0,.1,2.24,2.24,0,0,1,0,.24l.09.65c.06.41.11.82.18,1.24q0,.3.09.63c0,.08,0,.17,0,.26s0,.19,0,.29a1.55,1.55,0,0,0,0,.21c0,.21.06.42.1.64s.08.53.13.79l.07.36c0,.28.09.56.14.83s.05.33.09.48c.08.44.16.89.25,1.33s.16.82.25,1.24c.12.61.26,1.23.39,1.83.09.4.18.79.28,1.18l.27,1.15c0,.19.09.38.14.57.16.65.33,1.28.5,1.92l.33,1.22c.1.37.21.75.32,1.13.23.79.46,1.57.71,2.36.19.62.4,1.25.6,1.88.11.31.21.62.31.94l.21.58c0,.1.06.19.1.29h0l.18.53a0,0,0,0,0,0,0l.27.76.22.6v0h0l.09.24.09.23.33.89a0,0,0,0,1,0,0c.12.3.23.6.35.91l.18.43v0c.06.15.12.29.19.43.12.31.24.62.37.94.05.13.11.26.16.4l0,0c.13.31.25.61.38.91l.19.46c.13.29.25.59.38.88l0,0q.38.87.78,1.74c.14.31.28.62.43.93.06.13.13.27.19.41l.43.9c.73,1.52,1.51,3,2.3,4.52l.37.69,0,0c.22.42.46.84.69,1.25.31.57.64,1.13,1,1.68.05.09.1.18.16.27l.34.59v0c.21.33.4.67.61,1,.46.78.94,1.54,1.42,2.3.14.21.27.42.4.63,0,0,0,0,0,0,.24.38.48.74.73,1.11.55.84,1.12,1.68,1.69,2.5l.33.46.35.51.38.51c.84,1.18,1.71,2.35,2.6,3.49l.51.66.46.57.38.48.17.21c.27.34.55.67.82,1,.13.17.28.34.41.5.48.58,1,1.15,1.45,1.71.64.74,1.3,1.47,1.95,2.19.06.08.13.14.19.21l.08.08.53.58.38.41.78.82v0h0l.17.17a1.88,1.88,0,0,0,.24.25c.19.21.38.41.58.61l0,0c.17.18.34.36.53.53a5.55,5.55,0,0,0,.48.49h0l1.22,1.21.84.81h0a4.49,4.49,0,0,0,.39.36c.47.46.95.9,1.43,1.34l.31.28.31.28.09.08.88.79q1,.87,2,1.71c.12.1.24.21.36.3s.51.43.77.64c.74.62,1.49,1.22,2.25,1.82l.35.27c.27.21.54.43.81.63l.7.54.38.29.41.29.84.62c.23.18.46.34.69.5l.48.34v0h0q2.64,1.88,5.39,3.62l1,.59c.31.21.63.41,1,.59l1.23.75c1,.57,1.94,1.13,2.92,1.67l.9.5.5.26.79.43.31.16.54.28a4.73,4.73,0,0,0,.45.23c.22.11.43.23.65.33.54.28,1.09.55,1.65.82l2.12,1,.87.4.34.15.17.08.12,0,1.66.73.41.17.3.13,1.84.76.06,0H359l.47.19h0l.4.15a.59.59,0,0,0,.14.06l.3.12.53.2h0l1.38.52.85.31.94.33,1,.35,1.4.46.52.17c.5.16,1,.32,1.51.46s1.1.35,1.66.5l.47.14.11,0h0l.86.23.58.17.43.11a1,1,0,0,0,.25.06c.61.17,1.21.33,1.83.47s1.22.31,1.84.45h0c.79.18,1.59.36,2.38.52l1.3.27,1.95.37,1.23.22.53.09,1.24.2.48.07.4.06,1.37.19.3,0,1.31.16.18,0c.57.06,1.14.13,1.72.18l.11,0,.84.08h.08l1.73.16,1.72.13c.22,0,.44,0,.66,0l.31,0,1,0,2.64.11.86,0c1,0,2,0,3,0,.74,0,1.48,0,2.21,0l1.58,0c1.33,0,2.65-.1,4-.19l1.54-.1,1.66-.14.48,0,.92-.1,1.18-.12c.58-.06,1.15-.13,1.73-.21h.13l2-.28,1-.15,1.1-.17,1.13-.19,1.5-.27q.85-.15,1.71-.33l1-.2c.67-.14,1.35-.28,2-.44.34-.08.68-.15,1-.24,1.41-.33,2.82-.69,4.22-1.07l1.37-.4c1.65-.46,3.27-1,4.89-1.51l1.72-.59,1.52-.54c.21-.09.43-.16.66-.25l1.47-.56.63-.25,1.76-.71,1.75-.74c1.09-.47,2.17-1,3.25-1.46.81-.38,1.62-.77,2.42-1.17.52-.25,1-.5,1.53-.77.17-.08.33-.17.49-.26,1.17-.59,2.33-1.22,3.48-1.87l.9-.51.91-.52,1-.58c.6-.35,1.2-.72,1.79-1.09l.89-.56c.54-.34,1.07-.68,1.61-1s1-.66,1.52-1q1.81-1.23,3.58-2.52l1.65-1.22,1.63-1.26c.62-.48,1.23-1,1.84-1.47l1.36-1.12.37-.32,1.38-1.18,1.36-1.21c.51-.44,1-.91,1.52-1.38s1-.94,1.49-1.42,1-.95,1.48-1.44.86-.85,1.28-1.29a.85.85,0,0,0,.16-.17l1.42-1.49,1-1.1c1-1.12,2-2.25,3-3.41a.07.07,0,0,0,0,0,2.2,2.2,0,0,0,.2-.23q3.25-3.84,6.17-7.94l.08-.1c2.07-2.91,4-5.91,5.82-9l.78-1.35c.69-1.19,1.35-2.41,2-3.64.32-.6.63-1.22.94-1.83l.47.91c.15.31.31.62.48.92.64,1.23,1.3,2.45,2,3.64.34.6.69,1.2,1,1.79h0q1.57,2.67,3.29,5.25l1.16,1.71,1,1.49c.09.13.18.26.28.38.75,1.06,1.52,2.11,2.31,3.14s1.69,2.17,2.56,3.23c.39.46.77.93,1.17,1.39.08.11.17.21.26.32.41.48.83,1,1.24,1.42.89,1,1.81,2,2.75,3s2,2.07,3,3.07c.45.45.9.9,1.36,1.33s1,1,1.5,1.43l1.52,1.38c.9.81,1.81,1.61,2.74,2.39,1.25,1.06,2.54,2.11,3.84,3.12.42.32.83.65,1.26,1,2.22,1.68,4.5,3.3,6.85,4.82.55.37,1.1.72,1.66,1.07,1.19.76,2.4,1.49,3.61,2.2l1.81,1c.59.34,1.2.67,1.81,1s1.11.59,1.67.87q2.19,1.16,4.44,2.2c1.08.5,2.16,1,3.25,1.46l1.92.81,1.59.64.4.16,1.7.65,2.18.79,1.72.59c1.3.43,2.6.85,3.92,1.23.32.1.64.2,1,.28,1.15.35,2.31.66,3.48,1l2,.49.12,0,2,.47h0l2,.41q3.2.64,6.44,1.11l2,.28h.13c.63.09,1.25.16,1.88.23l2.43.24,1.66.14c.9.07,1.8.13,2.7.17l1.34.07.59,0c.29,0,.59,0,.88,0l1.58,0c.73,0,1.47,0,2.21,0h1.56l2.39-.06,1.78-.07.48,0,1.22-.06,1.21-.09c.22,0,.44,0,.65,0l.56-.05,1.21-.1.59-.06,1.43-.14h0l1.12-.13,1.68-.21.11,0,1.06-.14,1-.14.33,0,.64-.11.86-.13,2-.36,1.19-.22,1-.2.5-.1.87-.19.53-.11,1.56-.36,1.18-.28,1.45-.36,2-.53.67-.18.36-.11.23-.07,1.22-.35,1.29-.4.71-.22,1.65-.54,1.11-.38c.43-.14.84-.29,1.26-.44l.88-.32h0l.12-.05.19-.07,1.07-.4,1.38-.53h0l.22-.09,1.15-.45,1.35-.57h0l.62-.26.73-.32.15-.08,1.78-.79,2.07-1h0l1.31-.64h0l.23-.12c.49-.24,1-.49,1.45-.74h0l1.75-.92q2.16-1.16,4.26-2.41h0l.09,0,1.15-.7.76-.46c.37-.22.72-.45,1.08-.68l1.14-.73.73-.47c1-.68,2.06-1.39,3.07-2.1l1.11-.79c.78-.56,1.53-1.12,2.28-1.68l1.8-1.38.64-.52.7-.56c.48-.39,1-.78,1.44-1.18l.59-.5.27-.22c.49-.42,1-.84,1.47-1.28l.75-.66,0,0,.76-.68h0l.62-.58c.26-.23.51-.47.76-.71l.4-.37.66-.64.62-.59.16-.16.23-.22.76-.75c.67-.68,1.34-1.36,2-2.05l0,0,.43-.45.21-.23.35-.35v0c.11-.11.22-.23.32-.35l.08-.07c.19-.21.38-.43.59-.64s.57-.63.84-.94l.12-.13s0,0,0,0c.66-.75,1.32-1.5,2-2.28.09-.11.19-.22.28-.34a5.37,5.37,0,0,0,.37-.44h0l.2-.24h0l.31-.39.08-.09c.48-.58.95-1.17,1.42-1.77v0c.14-.17.27-.34.4-.52s.27-.35.41-.53.52-.67.78-1l1-1.37.1-.13,1.4-2,.71-1c.1-.16.22-.33.33-.49.37-.54.73-1.09,1.1-1.65l.38-.57c.11-.19.23-.38.35-.57l.45-.71c0-.06.07-.12.11-.17.18-.29.36-.58.53-.87l.73-1.19.09-.16.16-.26v0l.21-.36.52-.88h0s0,0,0,0l.1-.18c.21-.35.41-.71.61-1.07v0c.3-.53.59-1.07.88-1.6s.59-1.09.87-1.64l.72-1.4.75-1.52c.06-.11.11-.23.16-.33l.36-.75v0c.1-.18.18-.35.26-.53v0l.61-1.32c.12-.25.22-.5.34-.75s.17-.4.26-.58l.33-.77c.09-.2.17-.41.26-.61l.3-.72.27-.65.25-.63,0-.08c.08-.21.16-.41.25-.62v0c.09-.22.19-.46.28-.7,0,0,0-.07,0-.11s.15-.35.21-.53a0,0,0,0,1,0,0l.21-.56.3-.8v0h0l0-.11.05-.12c0-.13.1-.28.14-.41l.27-.75.06-.17.42-1.2h0c.28-.83.55-1.67.82-2.51.06-.19.11-.37.17-.55.23-.76.45-1.51.67-2.26,0-.12.07-.23.1-.34.2-.7.39-1.4.58-2.1s.38-1.48.56-2.23a1.36,1.36,0,0,0,0-.17c.21-.83.4-1.66.59-2.49.09-.43.18-.86.28-1.29l.09-.44q0-.24.09-.45c.13-.67.26-1.36.38-2a.35.35,0,0,0,0-.12l.06-.35v0s0,0,0,0c0-.3.11-.59.15-.89.09-.47.16-.94.24-1.41,0-.08,0-.15,0-.23,0-.29.09-.59.13-.88s0-.3.06-.45.07-.43.1-.63l0-.22c0-.13,0-.26,0-.39s0-.38.07-.57l0-.32c0-.17,0-.35.07-.54l0-.38c.06-.47.11-.94.16-1.41s.12-1.13.17-1.69l.09-1s0-.1,0-.14a1.84,1.84,0,0,0,0-.33c0-.42.07-.83.09-1.26a.57.57,0,0,0,0-.13c0-.24,0-.47.05-.71v0c0-.27,0-.54,0-.81s0-.47,0-.7v0c0-.27,0-.53,0-.8,0-1,.08-2,.1-3.09,0-.75,0-1.5,0-2.26v0a6.21,6.21,0,0,0,.61-.2l.73-.23.49-.16,1.07-.35,1.17-.42.74-.26.83-.31.88-.34c.47-.18.94-.37,1.4-.57l.35-.15.46-.2,1.55-.68.37-.17c.53-.24,1-.48,1.56-.73,1.14-.55,2.26-1.12,3.37-1.72l.28-.14,1.13-.62,1.56-.91c1-.57,2-1.17,2.91-1.79l.31-.2c.95-.62,1.9-1.25,2.82-1.91,1.48-1,2.91-2.13,4.31-3.27.35-.27.69-.56,1-.85.81-.67,1.62-1.37,2.4-2.08.38-.33.75-.67,1.12-1q1.65-1.53,3.23-3.17c.35-.37.7-.73,1-1.1l1-1.12c.34-.37.67-.75,1-1.14.8-.91,1.56-1.84,2.31-2.78.33-.4.64-.81,1-1.22.45-.58.88-1.15,1.3-1.74s.66-.91,1-1.38.46-.66.68-1,.36-.53.54-.8l.87-1.34.82-1.34a.09.09,0,0,0,0-.06c.31-.49.61-1,.9-1.52s.59-1,.88-1.56.57-1,.84-1.57.48-.92.71-1.38l.31-.62c.19-.4.38-.79.57-1.2s.33-.69.48-1c0-.06,0-.12.08-.17l0,0a2.69,2.69,0,0,0,.13-.32c.18-.41.36-.81.53-1.22.31-.7.6-1.42.89-2.14.05-.14.11-.28.17-.43.17-.43.34-.87.49-1.3l0,0,.33-.94c.05-.12.09-.24.13-.36s.1-.26.14-.39l.09-.26.18-.53c0-.08,0-.16.07-.22h0c.12-.33.22-.66.32-1s.29-.9.43-1.36l0-.11a5.44,5.44,0,0,0,.15-.54c.13-.42.25-.85.37-1.28.07-.23.13-.45.19-.68.14-.54.28-1.07.41-1.61a1.31,1.31,0,0,0,.06-.27c.1-.38.19-.75.26-1.12s.12-.47.16-.7a1.18,1.18,0,0,0,0-.2c.13-.56.25-1.13.35-1.69,0-.18.07-.35.1-.53s.08-.4.11-.61h0l.15-.86c0-.22.08-.45.11-.68a1.08,1.08,0,0,0,0-.19.36.36,0,0,0,0-.1c.06-.35.11-.7.16-1.06s.07-.51.1-.77a.06.06,0,0,0,0-.06l.21-1.66v0a.65.65,0,0,0,0-.19c0-.16,0-.3.06-.45,0-.36.07-.72.1-1.08a.28.28,0,0,0,0-.09c0-.13,0-.27,0-.4l0-.34.06-.81c0-.21,0-.42,0-.63,0-.46.06-.91.09-1.37a.92.92,0,0,0,0-.16v-.16c0-.39,0-.77.05-1.16h0c0-.23,0-.46,0-.69a2.62,2.62,0,0,0,0-.28c0-.63,0-1.28,0-1.92A85.23,85.23,0,0,0,776.3,654Z"/><path class="cls-2" d="M421.5,652c24.42-11.9,34.38-21.64,52-27.16l9.65,59.78c-.39.07-.78.16-1.18.25q-4.75-3.36-9.82-6.31a28.41,28.41,0,0,0-42.36,20.37l-1.37.4c-48.92,14.2-90.41,2.94-112.12-5.84A28.43,28.43,0,0,0,324.67,666,161.23,161.23,0,0,0,421.5,652Z"/><path class="cls-3" d="M760.1,714.76c0,.36,0,.71,0,1.06v.06a.45.45,0,0,0,0,.11c0,.14,0,.28,0,.42a1.48,1.48,0,0,0,0,.21,1.85,1.85,0,0,0,0,.23,2.53,2.53,0,0,0,0,.28v.14c0,.22,0,.43,0,.65a1.09,1.09,0,0,0,0,.18c0,.18,0,.35-.05.54,0,0,0,.31,0,.34l-.06.59s0,.16,0,.19c0,.26,0,.52-.09.77l0,.2c0,.12,0,.24-.05.36s0,.25,0,.37a2.17,2.17,0,0,0,0,.25c-.08.47-.15.91-.24,1.33l0,.15c-.07.36-.14.72-.22,1.06l0,.11c-.07.33-.15.65-.23,1s-.17.64-.26,1a1.8,1.8,0,0,1,0,.19c0,.16-.09.32-.13.48a.6.6,0,0,0-.05.16,2.41,2.41,0,0,0-.07.24c-.06.18-.11.37-.17.55l-.12.38-.24.69a.65.65,0,0,0,0,.13c-.17.48-.38,1-.66,1.76-.23.56-.46,1.12-.71,1.68l0,.08a44.18,44.18,0,0,1-19.61,20.76l-1.46.73-1.05.49-.15.07c-.55.24-1.1.47-1.65.68l-.21.08-1.1.4-.56.2-1,.32c-1.1.34-2.15.62-3.15.85h0l-.24,0c-.55.13-1.08.24-1.62.33l-.23,0a44.71,44.71,0,0,1-7.74.68,43.73,43.73,0,0,1-28.08-10.25,43.19,43.19,0,0,1-4.25-4.1,28.4,28.4,0,0,0-40.1-2l-.06.06c-.21.18-.46.42-.75.71a28.63,28.63,0,0,0-4.36,5.43c-17.69-7-34.69-16.54-49.41-29.07a27.83,27.83,0,0,0,2.45-4.37,28.38,28.38,0,0,0-40.08-36.26l-2,1.16-.07.05c-2.8,1.7-5.54,3.49-8.19,5.38l-.82-.27-4.08-61.9c7.65,3.08,19.66,10.09,28.14,16,40.22,28.14,94.21,32.84,134.62,26.45a28.17,28.17,0,0,0,.06,14.72A28.37,28.37,0,0,0,734.42,700a100.22,100.22,0,0,0,19.49-7.61A43.75,43.75,0,0,1,760.1,714.76Z"/><path class="cls-4" d="M464.61,745.36c-17-.11-36.63,1.61-59.88,3.53a167.11,167.11,0,0,1-19,.5,28.4,28.4,0,0,0-44.14-7.18c-37.77-11.4-60-32.22-60-32.22q-7.31-6.79-13.66-13.63a41.63,41.63,0,0,1,2.09-4A99.58,99.58,0,0,0,289.61,700a28.59,28.59,0,0,0,7.46,1,27.57,27.57,0,0,0,6.16-.69,28.16,28.16,0,0,0,13.11-6.86c21.71,8.78,63.2,20,112.12,5.84l1.37-.4a28.42,28.42,0,0,0,13.81,28.71A79.42,79.42,0,0,1,464.61,745.36Z"/><path class="cls-5" d="M482,684.86c.4-.09.79-.18,1.18-.25v1.07C482.8,685.4,482.4,685.12,482,684.86Z"/><path class="cls-6" d="M540.81,684.84l.82.27-.82.58Z"/><path class="cls-7" d="M697.73,813.34c-.38,1.69-.8,3.38-1.28,5a79.58,79.58,0,0,1-26.94,40.09,78.28,78.28,0,0,1-10.23,6.93c-38.87-11.67-81.77-36-107.21-74.07a151.67,151.67,0,0,0-9.28-12.53,77.73,77.73,0,0,1,2.18-7.72,79.61,79.61,0,0,1,35.37-43.45,28.28,28.28,0,0,0,9.15-8.48c14.72,12.53,31.72,22.08,49.41,29.07a28.26,28.26,0,0,0,3.18,33.9A101,101,0,0,0,697.73,813.34Z"/><path class="cls-8" d="M464.61,745.36c-17-.11-36.63,1.61-59.88,3.53a167.11,167.11,0,0,1-19,.5,28.4,28.4,0,0,0-44.14-7.18c-37.77-11.4-60-32.22-60-32.22q-7.31-6.79-13.66-13.63a41.63,41.63,0,0,1,2.09-4A99.58,99.58,0,0,0,289.61,700a28.59,28.59,0,0,0,7.46,1,27.57,27.57,0,0,0,6.16-.69,28.16,28.16,0,0,0,13.11-6.86c21.71,8.78,63.2,20,112.12,5.84l1.37-.4a28.42,28.42,0,0,0,13.81,28.71A79.42,79.42,0,0,1,464.61,745.36Z"/><path class="cls-9" d="M482,684.86c.4-.09.79-.18,1.18-.25v1.07C482.8,685.4,482.4,685.12,482,684.86Z"/><path class="cls-10" d="M540.81,684.84l.82.27-.82.58Z"/><path class="cls-11" d="M697.73,813.34c-.38,1.69-.8,3.38-1.28,5a79.58,79.58,0,0,1-26.94,40.09,78.28,78.28,0,0,1-10.23,6.93c-38.87-11.67-81.77-36-107.21-74.07a151.67,151.67,0,0,0-9.28-12.53,77.73,77.73,0,0,1,2.18-7.72,79.61,79.61,0,0,1,35.37-43.45,28.28,28.28,0,0,0,9.15-8.48c14.72,12.53,31.72,22.08,49.41,29.07a28.26,28.26,0,0,0,3.18,33.9A101,101,0,0,0,697.73,813.34Z"/><path class="cls-12" d="M307.49,758.36a44.2,44.2,0,0,1-7.71-.68,42.4,42.4,0,0,1-5.23-1.28c-.59-.18-1.2-.39-1.89-.64h0l-.23-.09a43.28,43.28,0,0,1-4.57-2l-.63-.32a44,44,0,0,1-16.46-15.12l-.25-.4c-.29-.46-.57-.91-.84-1.38v0c-.24-.43-.49-.87-.72-1.32a.16.16,0,0,1,0-.07c-.24-.46-.48-.92-.71-1.39v0c-.21-.44-.42-.9-.61-1.35-.08-.17-.14-.33-.21-.5s-.25-.58-.37-.87l-.07-.19c-.09-.24-.19-.47-.28-.73-.46-1.22-.86-2.47-1.19-3.66-.08-.31-.17-.63-.27-1s-.15-.64-.22-1c0,0,0,0,0,0-.07-.27-.12-.56-.18-.84s-.12-.58-.16-.84-.11-.56-.15-.86a.5.5,0,0,1,0-.12c0-.07,0-.13,0-.2l-.06-.46a2.51,2.51,0,0,1,0-.27l0-.2q-.06-.37-.09-.75s0-.24,0-.24c0-.18,0-.37-.06-.6,0,0,0-.05,0-.09l0-.23v0c0-.2,0-.36-.05-.56v-.14c0-.21,0-.42,0-.63v-.09c0-.19,0-.37,0-.56s0-.43,0-.64,0-.11,0-.17c0-.34,0-.7,0-1a43.25,43.25,0,0,1,4.1-18.4q6.35,6.85,13.66,13.63s22.2,20.82,60,32.22c-.62.57-1.22,1.17-1.79,1.8A43.72,43.72,0,0,1,307.49,758.36Z"/><path class="cls-13" d="M471.2,754.46a79.35,79.35,0,0,1,12,41.81v.06a79.4,79.4,0,0,1-156.94,17,100.88,100.88,0,0,0,55.66-31.22,28.44,28.44,0,0,0,3.85-32.73,167.11,167.11,0,0,0,19-.5c23.25-1.92,42.85-3.64,59.88-3.53A79.82,79.82,0,0,1,471.2,754.46Z"/><path class="cls-14" d="M659.28,865.4a77.72,77.72,0,0,1-25.74,9.19,80.89,80.89,0,0,1-13.35,1.11,79.47,79.47,0,0,1-79.38-79.39,78.16,78.16,0,0,1,2-17.51,151.67,151.67,0,0,1,9.28,12.53C577.51,829.43,620.41,853.73,659.28,865.4Z"/><path class="cls-15" d="M307.49,758.36a44.2,44.2,0,0,1-7.71-.68,42.4,42.4,0,0,1-5.23-1.28c-.59-.18-1.2-.39-1.89-.64h0l-.23-.09a43.28,43.28,0,0,1-4.57-2l-.63-.32a44,44,0,0,1-16.46-15.12l-.25-.4c-.29-.46-.57-.91-.84-1.38v0c-.24-.43-.49-.87-.72-1.32a.16.16,0,0,1,0-.07c-.24-.46-.48-.92-.71-1.39v0c-.21-.44-.42-.9-.61-1.35-.08-.17-.14-.33-.21-.5s-.25-.58-.37-.87l-.07-.19c-.09-.24-.19-.47-.28-.73-.46-1.22-.86-2.47-1.19-3.66-.08-.31-.17-.63-.27-1s-.15-.64-.22-1c0,0,0,0,0,0-.07-.27-.12-.56-.18-.84s-.12-.58-.16-.84-.11-.56-.15-.86a.5.5,0,0,1,0-.12c0-.07,0-.13,0-.2l-.06-.46a2.51,2.51,0,0,1,0-.27l0-.2q-.06-.37-.09-.75s0-.24,0-.24c0-.18,0-.37-.06-.6,0,0,0-.05,0-.09l0-.23v0c0-.2,0-.36-.05-.56v-.14c0-.21,0-.42,0-.63v-.09c0-.19,0-.37,0-.56s0-.43,0-.64,0-.11,0-.17c0-.34,0-.7,0-1a43.25,43.25,0,0,1,4.1-18.4q6.35,6.85,13.66,13.63s22.2,20.82,60,32.22c-.62.57-1.22,1.17-1.79,1.8A43.72,43.72,0,0,1,307.49,758.36Z"/><path class="cls-16" d="M471.2,754.46a79.35,79.35,0,0,1,12,41.81v.06a79.4,79.4,0,0,1-156.94,17,100.88,100.88,0,0,0,55.66-31.22,28.44,28.44,0,0,0,3.85-32.73,167.11,167.11,0,0,0,19-.5c23.25-1.92,42.85-3.64,59.88-3.53A79.82,79.82,0,0,1,471.2,754.46Z"/><path class="cls-17" d="M659.28,865.4a77.72,77.72,0,0,1-25.74,9.19,80.89,80.89,0,0,1-13.35,1.11,79.47,79.47,0,0,1-79.38-79.39,78.16,78.16,0,0,1,2-17.51,151.67,151.67,0,0,1,9.28,12.53C577.51,829.43,620.41,853.73,659.28,865.4Z"/><path class="cls-18" d="M307.49,758.36a44.2,44.2,0,0,1-7.71-.68,42.4,42.4,0,0,1-5.23-1.28c-.59-.18-1.2-.39-1.89-.64h0l-.23-.09a43.28,43.28,0,0,1-4.57-2l-.63-.32a44,44,0,0,1-16.46-15.12l-.25-.4c-.29-.46-.57-.91-.84-1.38v0c-.24-.43-.49-.87-.72-1.32a.16.16,0,0,1,0-.07c-.24-.46-.48-.92-.71-1.39v0c-.21-.44-.42-.9-.61-1.35-.08-.17-.14-.33-.21-.5s-.25-.58-.37-.87l-.07-.19c-.09-.24-.19-.47-.28-.73-.46-1.22-.86-2.47-1.19-3.66-.08-.31-.17-.63-.27-1s-.15-.64-.22-1c0,0,0,0,0,0-.07-.27-.12-.56-.18-.84s-.12-.58-.16-.84-.11-.56-.15-.86a.5.5,0,0,1,0-.12c0-.07,0-.13,0-.2l-.06-.46a2.51,2.51,0,0,1,0-.27l0-.2q-.06-.37-.09-.75s0-.24,0-.24c0-.18,0-.37-.06-.6,0,0,0-.05,0-.09l0-.23v0c0-.2,0-.36-.05-.56v-.14c0-.21,0-.42,0-.63v-.09c0-.19,0-.37,0-.56s0-.43,0-.64,0-.11,0-.17c0-.34,0-.7,0-1a43.25,43.25,0,0,1,4.1-18.4q6.35,6.85,13.66,13.63s22.2,20.82,60,32.22c-.62.57-1.22,1.17-1.79,1.8A43.72,43.72,0,0,1,307.49,758.36Z"/><path class="cls-19" d="M471.2,754.46a79.35,79.35,0,0,1,12,41.81v.06a79.4,79.4,0,0,1-156.94,17,100.88,100.88,0,0,0,55.66-31.22,28.44,28.44,0,0,0,3.85-32.73,167.11,167.11,0,0,0,19-.5c23.25-1.92,42.85-3.64,59.88-3.53A79.82,79.82,0,0,1,471.2,754.46Z"/><path class="cls-20" d="M659.28,865.4a77.72,77.72,0,0,1-25.74,9.19,80.89,80.89,0,0,1-13.35,1.11,79.47,79.47,0,0,1-79.38-79.39,78.16,78.16,0,0,1,2-17.51,151.67,151.67,0,0,1,9.28,12.53C577.51,829.43,620.41,853.73,659.28,865.4Z"/><path d="M575.8,467.06c.68,38.67-51.47,77.43-51.47,77.43s-1.48-24.26-3-61.09a89.36,89.36,0,0,0,11.23-2.24S552.2,481.36,575.8,467.06Z"/><path class="cls-21" d="M597.07,326.91s-2.5,58.88-11.32,99.89a62,62,0,0,1-29.28,40.34l-23.86,14a89.36,89.36,0,0,1-11.23,2.24c-1.06-26.6-2.13-59.76-2.63-95.08a181.27,181.27,0,0,0,16.43-7.72C567.14,368.45,597.07,326.91,597.07,326.91Z"/><path class="cls-22" d="M589.75,183.83c-17.54,31-55.08,76.4-55.78,77.54,0,0-6.06,5.14-14.16,11.06,1.45-37.07,4.22-71.23,9-97.22,0,0,5.72-42.75,30.45-113C559.24,62.2,579.15,145.07,589.75,183.83Z"/><path class="cls-23" d="M592.74,297.47s-.85,36.12-57.56,83.13a181.27,181.27,0,0,1-16.43,7.72c-.53-38-.41-78.41,1.06-115.89,8.1-5.92,14.16-11.06,14.16-11.06.81-.8,33.64-18.54,56.58-47.49C593.27,260.14,592.74,297.47,592.74,297.47Z"/><path class="cls-24" d="M559.24,62.2c-24.73,70.26-30.45,113-30.45,113S519.7,201,512,263.08A123,123,0,0,1,462,234.28C479.79,167.25,509.65,102.83,559.24,62.2Z"/><path class="cls-25" d="M512,263.08c-3.75,30.26-7.17,69.13-9,117.84a123.49,123.49,0,0,1-62.78-17.17c3.52-40.29,10.05-85.45,21.77-129.47A123,123,0,0,0,512,263.08Z"/><path class="cls-26" d="M511.13,699s-13-88.84-21-135.81A84.14,84.14,0,0,0,455.43,508c-5.62-3.89-11.67-7-17.79-8.4,0,0-4.18-59.12,2.55-135.89A123.49,123.49,0,0,0,503,380.92C500,459.6,501,563.93,511.13,699Z"/></svg>